<svg width="164" height="46" xmlns="http://www.w3.org/2000/svg"><path d="M118 37h8v-7.5971h-8V37zm.3492-11.4862h7.3531V1h-7.353v24.5138zM17.8084 29.4856c-1.1171 1.202-2.5451 1.8032-4.2852 1.8032-1.7074 0-3.1197-.6083-4.2356-1.8277-1.1168-1.2179-1.675-3.0935-1.675-5.628 0-2.4355.5582-4.2632 1.675-5.4814 1.1159-1.2182 2.5282-1.8281 4.2356-1.8281 1.74 0 3.168.6099 4.2852 1.828 1.1151 1.2183 1.6745 3.0618 1.6745 5.5304 0 2.534-.5594 4.4017-1.6745 5.6036m-3.7358-18.2754c-2.7116 0-5.3038.8121-7.4806 2.2.2884-.7986.5353-1.4692.7082-1.9157.9929-2.563 3.3132-3.8458 6.1277-4.0992 2.8142-.2534 11.374-1.023 11.374-1.023V.0412l-7.0277.7891C5.6322 1.9808.2825 4.913.2825 21.3334c0 10.4856 5.443 15.2977 13.2653 15.2977 7.822 0 13.003-4.8161 13.003-12.7103 0-7.8945-5.297-12.7106-12.4782-12.7106m62.79 18.2797c-1.116 1.2182-2.5282 1.8273-4.2357 1.8273-1.74 0-3.168-.6091-4.2851-1.8273-1.1156-1.2186-1.675-3.0622-1.675-5.5303 0-2.5344.5594-4.4017 1.675-5.604 1.117-1.202 2.545-1.8028 4.2851-1.8028 1.7075 0 3.1198.6083 4.2357 1.8269 1.1163 1.2186 1.6745 3.0939 1.6745 5.6283 0 2.4356-.5582 4.2633-1.6745 5.4819M73.9137 11.21c-3.3892 0-5.9797 1.269-7.7712 3.3454v-2.8279h-6.281v34.0028h6.8054v-11.885c1.7597 1.7416 4.1745 2.7857 7.2468 2.7857 7.1814 0 11.6913-5.6905 11.6913-12.7103 0-7.0197-4.51-12.7107-11.6913-12.7107m31.9116.5175L99.912 28.16l-6.0806-16.4324h-7.4025l9.9757 24.664c-1.2176 2.02-2.9597 2.6073-5.2523 2.6073h-2.751v6.2227h3.5034c4.886 0 9.2343-2.7045 11.4959-8.6774l9.3343-24.8166h-6.9095zm-68.2345 9.4433c.1411-2.3773 2.4398-5.0017 5.8499-5.0017 3.4097 0 5.529 2.6244 5.6697 5.0017H37.5908zm18.2026 2.6771c0-7.068-3.7784-12.815-12.2884-12.815S30.4296 16.78 30.4296 23.848c0 7.441 5.097 13.099 14.762 13.099 4.9712 0 8.3547-1.9158 8.3547-1.9158v-5.2s-2.6762 1.595-7.263 1.595c-5.1063 0-8.2976-2.3108-8.684-5.3824h18.09c.0655-.6016.1041-1.5692.1041-2.1958zM133 1h2.916c.944 0 1.662.16 2.154.48.492.32.738.86.738 1.62 0 .312-.042.582-.126.81-.084.228-.2.424-.348.588-.148.164-.328.298-.54.402-.212.104-.446.184-.702.24.672.08 1.178.274 1.518.582.34.308.51.774.51 1.398 0 .448-.082.83-.246 1.146-.164.316-.39.572-.678.768-.288.196-.628.34-1.02.432-.392.092-.82.138-1.284.138H133V1zm1.128 1.032v2.64h1.704c.272 0 .52-.03.744-.09.224-.06.416-.152.576-.276.16-.124.286-.28.378-.468.092-.188.138-.414.138-.678 0-.44-.152-.738-.456-.894-.304-.156-.736-.234-1.296-.234h-1.788zm0 3.66v2.892h1.764c.304 0 .58-.024.828-.072.248-.048.462-.128.642-.24.18-.112.32-.26.42-.444.1-.184.15-.412.15-.684 0-.544-.174-.922-.522-1.134-.348-.212-.898-.318-1.65-.318h-1.632zM141.6 1h5.328v1.032h-4.2v2.604h3.564v1.02h-3.564v2.928h4.26v1.02H141.6V1zm11.12 1.044v7.56h-1.14v-7.56h-2.652V1h6.444v1.044h-2.652zM159.076 1h1.68l3.084 8.604h-1.2l-.888-2.46h-3.804l-.876 2.46h-1.056L159.076 1zm2.316 5.124l-1.536-4.284-1.536 4.284h3.072z" fill="#FFF" fill-rule="evenodd"/></svg>