<svg viewBox="0 0 148 48" xmlns="http://www.w3.org/2000/svg"><g fill="none"><rect fill="#000" width="148" height="48" rx="7.322"/><path d="M49.498 14.185c-.05.799-.15 1.335-.482 1.733v.069h3.267v-5.14h-2.567l-.218 3.338zM48.217 17v1.415h-1.018v-2.428h.521c.511-.308.69-.909.745-1.862l.263-4.29h4.668v6.152h.893v2.428h-1.017V17h-5.055zm9.717-.844c.924 0 1.45-.685 1.45-1.862 0-1.172-.526-1.857-1.45-1.857-.928 0-1.45.685-1.45 1.857 0 1.182.522 1.862 1.45 1.862zm0 .948c-1.584 0-2.552-1.057-2.552-2.81 0-1.743.973-2.806 2.552-2.806 1.574 0 2.548 1.063 2.548 2.806 0 1.753-.969 2.81-2.548 2.81zm8.695-3.744h-1.038c-.124-.526-.56-.918-1.276-.918-.894 0-1.44.685-1.44 1.837 0 1.172.551 1.872 1.44 1.872.676 0 1.137-.308 1.276-.889h1.038c-.139 1.088-.973 1.842-2.309 1.842-1.574 0-2.537-1.062-2.537-2.825 0-1.733.958-2.79 2.532-2.79 1.356 0 2.175.789 2.314 1.871zm5.304-1.768v.9h-1.704V17h-1.067v-4.509h-1.703v-.899h4.474zm1.926 7.37c-.089 0-.342-.01-.441-.025v-.92c.084.016.248.02.347.02.507 0 .795-.208.978-.754l.08-.263-1.957-5.428h1.162l1.356 4.296h.084l1.35-4.296h1.133l-2.016 5.631c-.462 1.316-.973 1.738-2.076 1.738v.001zM82.808 17v-4.509h-2.414V17h-1.067v-5.408h4.548V17h-1.067zm2.895 0v-5.408h1.067v2.165h2.463v-2.165h1.068V17h-1.068v-2.344H86.77V17h-1.067zm8.714-.844c.924 0 1.45-.685 1.45-1.862 0-1.172-.526-1.857-1.45-1.857-.928 0-1.45.685-1.45 1.857 0 1.182.522 1.862 1.45 1.862zm0 .948c-1.584 0-2.552-1.057-2.552-2.81 0-1.743.973-2.806 2.552-2.806 1.575 0 2.548 1.063 2.548 2.806 0 1.753-.969 2.81-2.548 2.81zm9.306-4.692h-1.167v1.4h1.048c.65 0 .953-.248.953-.705 0-.422-.263-.695-.834-.695zm-.044 2.185h-1.123v1.584h1.257c.63 0 .968-.278.968-.79 0-.541-.382-.794-1.102-.794zM101.499 17v-5.408h2.428c1.062 0 1.678.537 1.678 1.376 0 .546-.387 1.043-.913 1.142v.084c.7.08 1.157.591 1.157 1.247 0 .943-.71 1.559-1.897 1.559h-2.453zM55.63 37l-1.258-3.651h-5.244L47.86 37h-2.193l4.968-13.757h2.297L57.9 37h-2.27zm-3.956-11.26l-2.002 5.816h4.156l-1.992-5.816h-.162zm13.36.706c2.64 0 4.31 2.06 4.31 5.358 0 3.299-1.67 5.368-4.291 5.368-1.478 0-2.65-.649-3.194-1.745h-.162v5.024h-2.05V26.618h1.974v1.716h.152c.63-1.183 1.85-1.888 3.26-1.888h.001zm-.582 8.886c1.745 0 2.784-1.326 2.784-3.528 0-2.193-1.039-3.518-2.774-3.518-1.726 0-2.803 1.354-2.803 3.528 0 2.164 1.077 3.518 2.793 3.518zm12.33-8.886c2.642 0 4.31 2.06 4.31 5.358 0 3.299-1.668 5.368-4.29 5.368-1.478 0-2.65-.649-3.194-1.745h-.162v5.024h-2.05V26.618h1.974v1.716h.152c.63-1.183 1.85-1.888 3.26-1.888zm-.58 8.886c1.744 0 2.783-1.326 2.783-3.528 0-2.193-1.039-3.518-2.774-3.518-1.726 0-2.803 1.354-2.803 3.528 0 2.164 1.077 3.518 2.793 3.518h.001zm7.893-2.031h2.117c.181 1.306 1.459 2.135 3.299 2.135 1.716 0 2.974-.886 2.974-2.107 0-1.048-.8-1.678-2.622-2.107l-1.773-.429c-2.488-.581-3.623-1.782-3.623-3.804 0-2.45 2.002-4.08 5.005-4.08 2.794 0 4.834 1.63 4.958 3.947h-2.078c-.2-1.268-1.306-2.06-2.908-2.06-1.688 0-2.813.811-2.813 2.05 0 .982.725 1.545 2.517 1.964l1.516.372c2.822.658 3.985 1.802 3.985 3.871 0 2.631-2.04 4.28-5.3 4.28-3.051 0-5.101-1.572-5.254-4.032zm13.437-9.267h2.05v2.631h2.25v1.726h-2.25v5.339c0 1.087.448 1.563 1.468 1.563.314 0 .496-.019.782-.047v1.706a6.622 6.622 0 0 1-1.116.105c-2.278 0-3.184-.8-3.184-2.803v-5.863h-1.65v-1.726h1.65v-2.631zm10.576 11.345c1.773 0 2.784-1.315 2.784-3.575 0-2.25-1.01-3.566-2.784-3.566-1.783 0-2.784 1.316-2.784 3.566 0 2.27 1.001 3.575 2.784 3.575zm0 1.821c-3.041 0-4.9-2.03-4.9-5.396 0-3.346 1.868-5.387 4.9-5.387 3.022 0 4.89 2.04 4.89 5.387 0 3.365-1.858 5.396-4.89 5.396zm6.944-.2V26.618h1.973v1.592h.153c.296-1.02 1.45-1.764 2.803-1.764.305 0 .696.029.915.086v2.021c-.171-.057-.782-.124-1.144-.124-1.554 0-2.65.982-2.65 2.44V37h-2.05zm11.673-8.838c-1.516 0-2.575 1.068-2.689 2.689h5.244c-.048-1.63-1.04-2.689-2.555-2.689zm2.545 6.035h1.974c-.468 1.86-2.126 3.003-4.5 3.003-2.975 0-4.796-2.04-4.796-5.358 0-3.318 1.86-5.425 4.786-5.425 2.889 0 4.634 1.974 4.634 5.234v.716h-7.332v.114c.067 1.82 1.125 2.975 2.765 2.975 1.24 0 2.088-.449 2.47-1.259h-.001zM30.197 23.78c.04 4.49 3.94 5.984 3.984 6.005-.035.102-.625 2.13-2.057 4.224-1.237 1.81-2.52 3.61-4.543 3.646-1.99.038-2.629-1.179-4.903-1.179-2.274 0-2.984 1.143-4.865 1.217-1.952.074-3.44-1.954-4.688-3.756-2.552-3.687-4.5-10.42-1.882-14.963 1.298-2.258 3.622-3.687 6.144-3.724 1.917-.034 3.729 1.293 4.9 1.293 1.172 0 3.373-1.596 5.685-1.362.967.04 3.686.39 5.43 2.942-.138.09-3.243 1.895-3.205 5.656v.001zm-3.74-11.039c-1.038 1.254-2.738 2.232-4.404 2.102-.225-1.707.615-3.48 1.576-4.595C24.7 8.993 26.509 8.06 28.003 8c.191 1.738-.51 3.484-1.545 4.741h-.001z" fill="#FFF"/></g></svg>