<svg viewBox="0 0 162 48" xmlns="http://www.w3.org/2000/svg" xmlns:xlink="http://www.w3.org/1999/xlink"><defs><path id="a" d="M0 0h162v48H0z"/><path id="c" d="M0 48h162V0H0z"/><linearGradient x1="100%" y1="50%" x2="64.838%" y2="50%" id="e"><stop stop-color="#FFD301" offset="0%"/><stop stop-color="#FFC001" offset="100%"/></linearGradient><linearGradient x1="14.837%" y1="27.891%" x2="82.299%" y2="50%" id="f"><stop stop-color="#07E476" offset="0%"/><stop stop-color="#00F076" offset="100%"/></linearGradient><linearGradient x1="50%" y1="0%" x2="50%" y2="100%" id="g"><stop stop-color="#01C5FF" offset="0%"/><stop stop-color="#00E2FF" offset="100%"/></linearGradient></defs><g fill="none" fill-rule="evenodd"><mask id="b" fill="#fff"><use xlink:href="#a"/></mask><path d="M156 48H6c-3.3 0-6-2.7-6-6V6c0-3.3 2.7-6 6-6h150c3.3 0 6 2.7 6 6v36c0 3.3-2.7 6-6 6" fill="#010202" fill-rule="nonzero" mask="url(#b)"/><path d="M156 0H6C2.7 0 0 2.7 0 6v36c0 3.3 2.7 6 6 6h150c3.3 0 6-2.7 6-6V6c0-3.3-2.7-6-6-6m0 .96c2.78 0 5.04 2.26 5.04 5.04v36c0 2.78-2.26 5.04-5.04 5.04H6C3.22 47.04.96 44.78.96 42V6C.96 3.22 3.22.96 6 .96h150"/><mask id="d" fill="#fff"><use xlink:href="#c"/></mask><path d="M128.323 36h2.24V20.999h-2.24V36zm20.169-9.598l-2.567 6.504h-.077l-2.664-6.504h-2.412l3.995 9.09-2.278 5.057h2.335l6.158-14.147h-2.49zm-12.699 7.894c-.734 0-1.757-.367-1.757-1.274 0-1.158 1.274-1.601 2.374-1.601.984 0 1.447.212 2.046.501a2.714 2.714 0 0 1-2.663 2.374zm.27-8.221c-1.621 0-3.301.714-3.996 2.295l1.989.83c.424-.83 1.215-1.1 2.046-1.1 1.158 0 2.335.695 2.354 1.93v.155c-.406-.232-1.274-.579-2.335-.579-2.142 0-4.324 1.178-4.324 3.377 0 2.008 1.757 3.3 3.725 3.3 1.506 0 2.335-.674 2.857-1.466h.077v1.158h2.161v-5.752c0-2.663-1.987-4.148-4.554-4.148zm-13.838 2.154h-3.185v-5.143h3.185c1.674 0 2.624 1.387 2.624 2.571 0 1.163-.95 2.572-2.624 2.572zm-.058-7.23h-5.365V36h2.238v-5.683h3.127c2.482 0 4.921-1.798 4.921-4.66S124.648 21 122.168 21l-.001-.001zm-29.257 13.3c-1.547 0-2.842-1.295-2.842-3.074 0-1.797 1.295-3.113 2.842-3.113 1.528 0 2.725 1.316 2.725 3.113 0 1.779-1.197 3.073-2.725 3.073v.001zm2.57-7.057h-.076c-.503-.598-1.47-1.14-2.687-1.14-2.553 0-4.891 2.242-4.891 5.123 0 2.861 2.338 5.085 4.89 5.085 1.219 0 2.185-.542 2.688-1.16h.076v.734c0 1.953-1.042 2.996-2.725 2.996-1.373 0-2.223-.985-2.571-1.817l-1.953.813c.56 1.353 2.05 3.015 4.524 3.015 2.63 0 4.853-1.547 4.853-5.316v-9.164H95.48v.831zM99.154 36h2.242V20.998h-2.242V36zm5.548-4.949c-.057-1.973 1.528-2.977 2.668-2.977.89 0 1.644.444 1.895 1.082l-4.563 1.895zm6.96-1.701c-.426-1.142-1.72-3.249-4.369-3.249-2.629 0-4.813 2.069-4.813 5.105 0 2.86 2.165 5.104 5.064 5.104 2.34 0 3.692-1.43 4.254-2.262l-1.74-1.16c-.58.85-1.373 1.41-2.514 1.41-1.14 0-1.952-.522-2.474-1.545l6.824-2.824-.232-.58v.001zm-54.37-1.682v2.165h5.181c-.155 1.218-.56 2.107-1.178 2.725-.755.755-1.935 1.586-4.002 1.586-3.191 0-5.685-2.57-5.685-5.762 0-3.19 2.494-5.76 5.685-5.76 1.72 0 2.977.676 3.905 1.546l1.527-1.526c-1.296-1.238-3.015-2.186-5.432-2.186-4.37 0-8.043 3.558-8.043 7.926 0 4.37 3.674 7.928 8.043 7.928 2.358 0 4.136-.774 5.528-2.224 1.43-1.43 1.876-3.44 1.876-5.065a7 7 0 0 0-.117-1.353h-7.288zm13.294 6.63c-1.545 0-2.88-1.275-2.88-3.092 0-1.837 1.335-3.094 2.88-3.094 1.547 0 2.882 1.257 2.882 3.094 0 1.817-1.335 3.092-2.882 3.092zm0-8.197c-2.822 0-5.122 2.147-5.122 5.105 0 2.938 2.3 5.104 5.122 5.104 2.823 0 5.124-2.166 5.124-5.104 0-2.958-2.301-5.105-5.124-5.105zm11.177 8.197c-1.547 0-2.881-1.275-2.881-3.092 0-1.837 1.334-3.094 2.881-3.094 1.547 0 2.88 1.257 2.88 3.094 0 1.817-1.333 3.092-2.88 3.092zm0-8.197c-2.822 0-5.123 2.147-5.123 5.105 0 2.938 2.3 5.104 5.123 5.104 2.823 0 5.123-2.166 5.123-5.104 0-2.958-2.3-5.105-5.123-5.105z" fill="#FEFEFE" fill-rule="nonzero" mask="url(#d)"/><path d="M52.196 11.96c.014 1.14-.215 2.058-.683 2.755h3.64v-5.43h-2.957v2.675zm-1.66 5.169h-.884v-2.414h.704c.623-.536.928-1.455.915-2.755V8.4h4.807v6.315h.804v2.414h-.885v-1.53h-5.46v1.53h-.001z" fill="#FEFEFE" fill-rule="nonzero"/><path d="M52.196 11.96c.014 1.14-.215 2.058-.683 2.755h3.64v-5.43h-2.957v2.675zm-1.66 5.169h-.884v-2.414h.704c.623-.536.928-1.455.915-2.755V8.4h4.807v6.315h.804v2.414h-.885v-1.53h-5.46v1.53h-.001z" stroke="#FEFEFE" stroke-width=".5"/><path d="M59.501 14.067c.533.54 1.185.809 1.956.809.77 0 1.423-.27 1.956-.81.533-.54.8-1.228.8-2.066 0-.837-.267-1.527-.8-2.066a2.644 2.644 0 0 0-1.956-.81c-.771 0-1.423.27-1.956.81-.531.539-.799 1.229-.799 2.066 0 .838.268 1.527.8 2.067m4.595.602c-.708.729-1.587 1.092-2.64 1.092-1.052 0-1.932-.363-2.639-1.092-.708-.726-1.06-1.616-1.06-2.669 0-1.052.352-1.942 1.06-2.67.707-.727 1.587-1.09 2.64-1.09 1.046 0 1.923.364 2.634 1.095.71.731 1.066 1.619 1.066 2.665 0 1.053-.354 1.943-1.06 2.67" fill="#FEFEFE" fill-rule="nonzero"/><path d="M59.501 14.067c.533.54 1.185.809 1.956.809.77 0 1.423-.27 1.956-.81.533-.54.8-1.228.8-2.066 0-.837-.267-1.527-.8-2.066a2.644 2.644 0 0 0-1.956-.81c-.771 0-1.423.27-1.956.81-.531.539-.799 1.229-.799 2.066 0 .838.268 1.527.8 2.067h-.001zm4.596.602c-.708.729-1.587 1.092-2.64 1.092-1.052 0-1.932-.363-2.639-1.092-.708-.726-1.06-1.616-1.06-2.669 0-1.052.352-1.942 1.06-2.67.707-.727 1.587-1.09 2.64-1.09 1.046 0 1.923.364 2.634 1.095.71.731 1.066 1.619 1.066 2.665 0 1.053-.354 1.943-1.06 2.67l-.001-.001z" stroke="#FEFEFE" stroke-width=".5"/><path d="M69.815 15.76c-1.06 0-1.948-.358-2.665-1.075-.718-.717-1.075-1.612-1.075-2.685 0-1.072.357-1.967 1.075-2.685.717-.717 1.605-1.076 2.665-1.076 1.085 0 1.968.392 2.645 1.176l-.645.624c-.488-.61-1.156-.914-2-.914-.785 0-1.447.264-1.986.794-.54.53-.81 1.223-.81 2.08 0 .859.27 1.554.81 2.083.539.53 1.201.794 1.986.794.865 0 1.602-.348 2.213-1.045l.643.643c-.33.395-.74.71-1.237.94a3.78 3.78 0 0 1-1.62.347" fill="#FEFEFE" fill-rule="nonzero"/><path d="M69.815 15.76c-1.06 0-1.948-.358-2.665-1.075-.718-.717-1.075-1.612-1.075-2.685 0-1.072.357-1.967 1.075-2.685.717-.717 1.605-1.076 2.665-1.076 1.085 0 1.968.392 2.645 1.176l-.645.624c-.488-.61-1.156-.914-2-.914-.785 0-1.447.264-1.986.794-.54.53-.81 1.223-.81 2.08 0 .859.27 1.554.81 2.083.539.53 1.201.794 1.986.794.865 0 1.602-.348 2.213-1.045l.643.643c-.33.395-.74.71-1.237.94a3.78 3.78 0 0 1-1.62.347l.001-.001z" stroke="#FEFEFE" stroke-width=".5"/><path fill="#FEFEFE" fill-rule="nonzero" d="M76.413 15.6h-.926V9.285h-2.01V8.4h4.947v.885h-2.011z"/><path stroke="#FEFEFE" stroke-width=".5" d="M76.413 15.6h-.926V9.285h-2.01V8.4h4.947v.885h-2.011z"/><path d="M84.776 8.4l-2.726 6.075c-.375.856-.933 1.286-1.677 1.286-.222 0-.46-.054-.715-.16l.24-.855c.156.086.316.13.483.13.215 0 .382-.041.498-.125.118-.084.227-.237.328-.458l.261-.573-2.424-5.32h1.086l1.78 4.133h.04L83.69 8.4h1.086z" fill="#FEFEFE" fill-rule="nonzero"/><path d="M84.776 8.4l-2.726 6.075c-.375.856-.933 1.286-1.677 1.286-.222 0-.46-.054-.715-.16l.24-.855c.156.086.316.13.483.13.215 0 .382-.041.498-.125.118-.084.227-.237.328-.458l.261-.573-2.424-5.32h1.086l1.78 4.133h.04L83.69 8.4h1.086z" stroke="#FEFEFE" stroke-width=".5"/><path fill="#FEFEFE" fill-rule="nonzero" d="M85.823 15.6V8.4h5.21v7.2h-.927V9.285h-3.359V15.6z"/><path stroke="#FEFEFE" stroke-width=".5" d="M85.823 15.6V8.4h5.21v7.2h-.927V9.285h-3.359V15.6z"/><path fill="#FEFEFE" fill-rule="nonzero" d="M92.681 15.6V8.4h.925v3.087h3.6V8.4h.926v7.2h-.926v-3.248h-3.6V15.6z"/><path stroke="#FEFEFE" stroke-width=".5" d="M92.681 15.6V8.4h.925v3.087h3.6V8.4h.926v7.2h-.926v-3.248h-3.6V15.6z"/><path d="M101.073 14.067c.533.54 1.184.809 1.956.809.771 0 1.423-.27 1.956-.81.533-.54.8-1.228.8-2.066 0-.837-.267-1.527-.8-2.066a2.643 2.643 0 0 0-1.956-.81c-.772 0-1.423.27-1.956.81-.532.539-.8 1.229-.8 2.066 0 .838.268 1.527.8 2.067m4.596.602c-.708.729-1.588 1.092-2.64 1.092-1.053 0-1.932-.363-2.639-1.092-.708-.726-1.06-1.616-1.06-2.669 0-1.052.352-1.942 1.06-2.67.707-.727 1.586-1.09 2.639-1.09 1.046 0 1.923.364 2.635 1.095.71.731 1.066 1.619 1.066 2.665 0 1.053-.354 1.943-1.061 2.67" fill="#FEFEFE" fill-rule="nonzero"/><path d="M101.073 14.067c.533.54 1.184.809 1.956.809.771 0 1.423-.27 1.956-.81.533-.54.8-1.228.8-2.066 0-.837-.267-1.527-.8-2.066a2.643 2.643 0 0 0-1.956-.81c-.772 0-1.423.27-1.956.81-.532.539-.8 1.229-.8 2.066 0 .838.268 1.527.8 2.067zm4.596.602c-.708.729-1.588 1.092-2.64 1.092-1.053 0-1.932-.363-2.639-1.092-.708-.726-1.06-1.616-1.06-2.669 0-1.052.352-1.942 1.06-2.67.707-.727 1.586-1.09 2.639-1.09 1.046 0 1.923.364 2.635 1.095.71.731 1.066 1.619 1.066 2.665 0 1.053-.354 1.943-1.061 2.67v-.001z" stroke="#FEFEFE" stroke-width=".5"/><path d="M111.437 14.715h1.861a1.1 1.1 0 0 0 .864-.373c.222-.247.333-.518.333-.813 0-.296-.114-.566-.342-.81-.228-.244-.527-.368-.896-.368h-1.82v2.364zm0-3.228h1.679c.349 0 .63-.115.841-.348.21-.23.316-.483.316-.758s-.102-.527-.308-.754c-.204-.228-.472-.342-.807-.342h-1.721v2.202zm-.924 4.113V8.4h2.603c.564 0 1.051.187 1.464.558.413.373.619.84.619 1.403 0 .342-.089.644-.268.904a1.66 1.66 0 0 1-.709.594v.04c.355.121.647.329.876.624.227.295.342.637.342 1.026a1.89 1.89 0 0 1-.649 1.468 2.217 2.217 0 0 1-1.534.583h-2.744z" fill="#FEFEFE" fill-rule="nonzero"/><path d="M111.437 14.715h1.861a1.1 1.1 0 0 0 .864-.373c.222-.247.333-.518.333-.813 0-.296-.114-.566-.342-.81-.228-.244-.527-.368-.896-.368h-1.82v2.364zm0-3.228h1.679c.349 0 .63-.115.841-.348.21-.23.316-.483.316-.758s-.102-.527-.308-.754c-.204-.228-.472-.342-.807-.342h-1.721v2.202zm-.924 4.113V8.4h2.603c.564 0 1.051.187 1.464.558.413.373.619.84.619 1.403 0 .342-.089.644-.268.904a1.66 1.66 0 0 1-.709.594v.04c.355.121.647.329.876.624.227.295.342.637.342 1.026a1.89 1.89 0 0 1-.649 1.468 2.217 2.217 0 0 1-1.534.583h-2.744z" stroke="#FEFEFE" stroke-width=".5"/><g fill-rule="nonzero"><path d="M.673.502L.659.488.573.574c-.339.365-.54.931-.54 1.665V28.45c0 .735.201 1.302.54 1.665l.086.086.014-.013c.276.251.627.388 1.031.39h.021c.385-.002.815-.126 1.273-.39l16.933-9.773.11-.063 5.708-3.295c1.631-.942 1.631-2.482 0-3.423l-5.707-3.295L2.998.501c-.461-.266-.896-.39-1.283-.39-.408 0-.764.138-1.042.391z" fill="url(#e)" transform="translate(12 8)"/><path d="M12.574 8.574c-.34.365-.54.931-.54 1.665V36.45c0 .734.2 1.3.54 1.665l.085.085.014-.013c.276.251.627.389 1.031.391h.021c.385-.002.816-.127 1.273-.39l17.044-9.838-4.928-5.006v-.173L12.659 8.488l-.086.086h.001z" fill="#FA3747"/><path d="M.673.502L.659.488.573.574c-.339.365-.54.931-.54 1.665V28.45c0 .735.201 1.302.54 1.665l.086.086 14.455-14.682v-.175l4.928-5.005L2.998.501c-.461-.266-.896-.39-1.283-.39-.408 0-.764.138-1.042.391" fill="url(#f)" transform="translate(12 8)"/><path d="M.573.574c-.339.365-.54.931-.54 1.665V28.45c0 .735.201 1.302.54 1.665l.086.086 14.455-14.682v-.348L.659.488.573.574z" fill="url(#g)" transform="translate(12 8)"/></g></g></svg>