<svg xmlns="http://www.w3.org/2000/svg" width="44" height="24" viewBox="0 0 44 24">
    <path fill="#F73D34" fill-rule="evenodd" d="M38.311 4.276c1.267-.175 2.533-.366 3.798-.572.52-.085 1.006.3 1.085.86.004.034.008.067.01.1l.795 16.343c.026.542-.344 1.012-.844 1.073a262.781 262.781 0 0 1-17.157 1.556c-5.49.31-10.91.422-16.264.336-.5-.008-.91-.433-.937-.972l-.132-2.71c-2.273.027-4.535.023-6.786-.01a1.03 1.03 0 0 1-1.016-.972L.001 2.959A1.028 1.028 0 0 1 1.08 1.881a183.14 183.14 0 0 0 17.945-.056C25.015 1.513 30.991.91 36.952.012a1.031 1.031 0 0 1 1.185.96l.174 3.304z"/>
</svg>