<svg viewBox="0 0 100 100" xmlns="http://www.w3.org/2000/svg" xmlns:xlink="http://www.w3.org/1999/xlink"><title>Shape</title><defs><circle id="a" cx="50" cy="50" r="50"/></defs><g fill="none" fill-rule="evenodd"><mask id="b" fill="#fff"><use xlink:href="#a"/></mask><use fill="#6B25FC" xlink:href="#a"/><path d="M80.4 90.455c-7.113-4.163-17.167-11.508-21.089-11.508h-9.324c-2.206 0-6.867-1.96-7.356-3.671-.49-1.225-.49-3.43-.246-5.387 0-.245.492-.245.735 0 1.963 2.205 2.944 3.674 4.907 3.674h4.414c1.717 0 7.602-5.143 10.054-11.508.49-1.47.982-3.919 1.225-6.61 0-.244.246-.491.246-.244.246 1.222.735 2.694.981 2.694.736.488 1.717-1.47 2.945-4.163 1.224-2.45 1.224-3.915 1.716-5.876.736-2.693-.246-4.651-.981-4.651a2.228 2.228 0 0 0-1.717.733c-.246 0-.492 0-.492-.242 0-1.716.246-4.41 2.209-5.878-2.698-2.447-.981-6.61-.981-6.61.98.49 2.452.49 2.452.49l-1.963-3.183c1.473-.244 2.698-1.469 2.698-1.469s-3.923-.977-5.885-2.446c1.716-.492 4.414-2.205 4.414-2.205s-5.15-.245-7.602-.98c2.206-2.2 2.206-6.365 2.206-6.365s-5.396 2.205-12.998 2.205c-5.393-.245-7.356-.98-11.28 2.938-4.659 4.648-4.659 5.876-7.603 5.876 2.452 3.426 1.228 6.853 1.228 6.853l-.247 5.143.247.977s0 .245.246.733c0 .248 0 .74.243.98l.735 3.922s-.243.241-.49 0a3.498 3.498 0 0 0-2.943-1.472c-.736 0-1.96 1.96-.979 4.651.736 1.96 1.47 3.183 2.206 5.876.735 2.694 2.206 4.652 2.944 4.163.243-.247.49-.98.736-2.205 0-.244.243 0 .489.247.246 2.447.735 4.649 1.227 5.873.49.736.982 1.714 1.47 2.447-.488 4.162-.98 9.305-1.962 13.22-6.374 1.714-16.185 4.652-24.523 6.61C3.396 75.767-2 63.037-2 49.326-2 20.929 21.052-2.086 49.5-2.086S101 20.929 101 49.326c0 16.892-8.094 31.823-20.6 41.129z" fill="#422498" mask="url(#b)"/></g></svg>