<svg xmlns="http://www.w3.org/2000/svg" viewBox="0 0 17 20">    <g fill-rule="nonzero" fill="#6A3DF7">        <path d="M8.5 13C5.717 13 3 9.888 3 6.5 3 2.708 5.028 0 8.5 0S14 2.708 14 6.5c0 3.388-2.717 6.5-5.5 6.5zm0-2c1.613 0 3.5-2.16 3.5-4.5C12 3.707 10.721 2 8.5 2S5 3.707 5 6.5C5 8.84 6.887 11 8.5 11z"/>        <path d="M8.5 19.5c-1.504 0-2.817.009-4.265.025l-1.441.017c-.47.006-.77.008-1.015.008-.294 0-.499-.004-.649-.013a1.993 1.993 0 0 1-.282-.033c-.1-.021-.1-.021-.283-.097-.308-.151-.308-.151-.565-.907 0-4.667.91-7.32 4.164-8.655.968-.397 1.586-.19 3.099.628.383.207.582.307.79.394.257.107.456.156.609.156.266 0 .57-.133 1.206-.526 1.069-.66 1.46-.846 2.185-.824.255.007.506.06.748.158C16.125 11.18 17 13.606 17 18.5c-.232.725-.232.725-.54.896-.19.083-.19.083-.295.106-.09.02-.181.03-.291.038-.152.01-.358.014-.653.014-.244 0-.546-.003-1.016-.009l-1.44-.018A330.341 330.341 0 0 0 8.5 19.5zm-6.485-1.95l.756-.008c.106 0 1.095-.013 1.441-.017 2.859-.033 5.717-.032 8.576.002l1.442.018c.321.004.562.007.758.008-.097-3.48-.79-4.996-2.94-5.87a.145.145 0 0 0-.054-.011c-.161-.005-.39.103-1.075.526-.949.586-1.492.825-2.257.825-.453 0-.897-.11-1.378-.31a9.897 9.897 0 0 1-.972-.48c-.917-.496-1.232-.602-1.389-.538-2.063.847-2.799 2.555-2.908 5.854v.001z"/>    </g></svg>