<svg xmlns="http://www.w3.org/2000/svg" width="18" height="18" viewBox="0 0 18 18"><path fill="#48729E" d="M18 16.313c0 .932-.756 1.688-1.688 1.688h-14.625c-.932 0-1.687-.756-1.687-1.688v-14.625c0-.932.756-1.688 1.687-1.688h14.625c.932 0 1.688.756 1.688 1.688v14.625z"/><path fill="#fff" d="M13.229 9.452c-.386-.416-.9-.692-1.542-.827v-.056c.446-.186.796-.477 1.05-.872.253-.395.38-.846.38-1.353 0-.437-.092-.823-.276-1.158-.184-.335-.462-.602-.834-.802-.344-.186-.713-.308-1.106-.366-.393-.058-.971-.087-1.733-.087h-3.669v10.387h4.157c.721 0 1.315-.065 1.782-.195.467-.13.896-.349 1.287-.656.33-.256.593-.579.788-.97.195-.391.293-.844.293-1.36 0-.707-.193-1.268-.579-1.685zm-2.881-1.985c-.079.172-.223.307-.432.405-.191.088-.376.137-.555.147-.179.009-.492.014-.938.014h-.328v-2.197h.181c.465 0 .815.004 1.05.01.235.007.438.048.61.122.181.079.315.207.401.384.086.177.129.349.129.516 0 .228-.04.428-.119.6zm.61 4.293c-.109.198-.283.348-.52.45-.27.116-.535.179-.795.188-.26.009-.73.014-1.409.014h-.14v-2.602h.481c.465 0 .836.003 1.113.01s.494.041.652.101c.26.093.456.23.586.412.13.181.195.432.195.753 0 .251-.055.476-.164.673z"/></svg>