<svg xmlns="http://www.w3.org/2000/svg" width="18" height="18" viewBox="0 0 18 18"><path fill="#CC5948" d="M18 16.313c0 .932-.756 1.688-1.688 1.688h-14.625c-.932 0-1.687-.756-1.687-1.688v-14.625c0-.932.756-1.688 1.687-1.688h14.625c.932 0 1.688.756 1.688 1.688v14.625z"/><path fill="#fff" d="M9.405 3.908h-.876c.089.057.189.142.301.252.107.116.213.258.315.425.098.159.185.347.262.563.062.216.093.468.093.757-.008.529-.121.951-.337 1.268-.106.154-.219.296-.336.425l-.42.397c-.084.091-.163.194-.234.31-.085.12-.128.259-.128.418 0 .153.044.28.131.381l.215.253.483.41c.3.255.562.536.789.844.213.312.324.721.332 1.225 0 .716-.304 1.35-.912 1.903-.631.572-1.542.866-2.732.886-.996-.009-1.74-.23-2.231-.662-.496-.403-.743-.885-.743-1.446 0-.273.081-.578.241-.913.156-.335.44-.631.85-.885.461-.274.945-.456 1.451-.547.502-.077.919-.12 1.251-.129-.102-.14-.194-.29-.274-.45-.093-.154-.14-.341-.14-.558 0-.13.017-.238.053-.325l.087-.254c-.162.018-.314.029-.457.029-.757-.01-1.334-.257-1.73-.743-.415-.451-.623-.978-.623-1.578 0-.725.295-1.384.883-1.975.404-.346.824-.572 1.26-.677.432-.091.836-.137 1.213-.137h2.844l-.879.533zm-2.725 6.567c-.295.043-.595.112-.903.209l-.306.13c-.132.062-.265.151-.401.267-.131.12-.242.269-.332.447-.104.187-.157.413-.157.677 0 .52.226.947.679 1.284.43.336 1.019.509 1.765.52.671-.01 1.182-.164 1.535-.462.345-.293.516-.67.516-1.131 0-.375-.118-.702-.354-.981-.249-.264-.638-.589-1.168-.974l-.319-.014c-.073-.009-.258 0-.556.03zm1.183-5.65c-.135-.284-.312-.515-.531-.693-.225-.169-.482-.258-.773-.267-.386.009-.706.171-.961.484-.216.327-.318.693-.309 1.097 0 .535.15 1.09.451 1.668.145.27.333.499.565.686.23.188.494.282.79.282.374-.014.686-.154.936-.419.121-.188.198-.38.232-.578.02-.197.031-.363.031-.498 0-.583-.143-1.17-.43-1.762zm5.269 3.982v1.55h-.722v-1.55h-1.492v-.751h1.492v-1.55h.722v1.55h1.492v.751h-1.492z"/></svg>