<svg xmlns="http://www.w3.org/2000/svg" width="18" height="18" viewBox="0 0 18 18"><path fill="#28AAE1" d="M18 16.313c0 .932-.756 1.688-1.688 1.688h-14.625c-.932 0-1.687-.756-1.687-1.688v-14.625c0-.932.756-1.688 1.687-1.688h14.625c.932 0 1.688.756 1.688 1.688v14.625z"/><path fill="#fff" d="M15.001 5.279c-.442.196-.916.328-1.414.388.508-.305.899-.787 1.083-1.362-.476.282-1.003.487-1.564.598-.449-.479-1.089-.778-1.797-.778-1.36 0-2.462 1.102-2.462 2.462 0 .193.022.381.064.561-2.047-.103-3.861-1.083-5.075-2.573-.212.364-.333.787-.333 1.238 0 .854.435 1.608 1.095 2.05-.404-.013-.783-.124-1.115-.308v.031c0 1.193.849 2.188 1.975 2.415-.207.056-.424.086-.649.086-.159 0-.313-.015-.463-.044.313.978 1.223 1.69 2.3 1.71-.843.66-1.904 1.054-3.058 1.054-.199 0-.395-.012-.587-.034 1.09.699 2.384 1.106 3.775 1.106 4.529 0 7.006-3.752 7.006-7.006l-.007-.319c.481-.347.899-.781 1.229-1.275"/></svg>