<svg xmlns="http://www.w3.org/2000/svg" width="12" height="11" viewBox="0 0 12 11">
  <path fill="#DCDCDC" fill-rule="evenodd" d="M537.539346,2413.612 L535.938147,2414.44287 C535.447931,2414.69724 534.844321,2414.50605 534.589946,2414.01584 C534.489154,2413.8216 534.45486,2413.59965 534.492326,2413.38405 L534.791727,2411.66108 C534.848605,2411.33377 534.739217,2410.99958 534.49981,2410.76924 L533.24116,2409.5583 C532.843167,2409.17539 532.830938,2408.54234 533.213847,2408.14435 C533.368314,2407.9838 533.571973,2407.87943 533.79251,2407.8478 L535.555086,2407.595 C535.879707,2407.54845 536.16087,2407.34568 536.307536,2407.05236 L537.105514,2405.45649 C537.352512,2404.96251 537.953189,2404.7623 538.447163,2405.0093 C538.640677,2405.10606 538.797589,2405.26297 538.894351,2405.45649 L539.692328,2407.05236 C539.838994,2407.34568 540.120157,2407.54845 540.444778,2407.595 L542.207354,2407.8478 C542.754045,2407.9262 543.133664,2408.43294 543.055257,2408.97963 C543.023627,2409.20017 542.919256,2409.40383 542.758704,2409.5583 L541.500054,2410.76924 C541.260647,2410.99958 541.15126,2411.33377 541.208137,2411.66108 L541.507538,2413.38405 C541.602092,2413.92818 541.237638,2414.44593 540.693507,2414.54049 C540.477902,2414.57795 540.255959,2414.54366 540.061717,2414.44287 L538.460518,2413.612 C538.171742,2413.46216 537.828122,2413.46216 537.539346,2413.612 Z" transform="translate(-532 -2404)"/>
</svg>