<svg xmlns="http://www.w3.org/2000/svg" width="128" height="34" preservAspectRatio="XmidYmid meet"><path fill="#8EF4C2" d="M1.617 20.433L0 5.52C30.504 2.239 52.024.422 64.689.068 71.798-.131 76.26.084 79.112 1c1.678.538 3.124 1.337 4.377 2.853 2.11 2.55 2.38 5.944.967 8.737 11.043-2.359 24.45-5.362 40.13-8.998L128 18.202c-45.784 10.615-71.698 15.8-79.702 15.8-2.014 0-3.59-.18-5.145-.784-4.215-1.639-6.7-6.338-4.481-10.98 1.282-2.684 3.106-3.99 6.941-6.028-11.54.902-26.214 2.31-43.996 4.222z"/></svg>